<?xml version="1.0" standalone="no"?>
<!DOCTYPE svg PUBLIC "-//W3C//DTD SVG 20010904//EN"
 "http://www.w3.org/TR/2001/REC-SVG-20010904/DTD/svg10.dtd">
<svg version="1.0" xmlns="http://www.w3.org/2000/svg"
 width="100.000000pt" height="100.000000pt" viewBox="0 0 100.000000 100.000000"
 preserveAspectRatio="xMidYMid meet">
<metadata>
Created by potrace 1.16, written by Peter Selinger 2001-2019
</metadata>
<g transform="translate(0.000000,100.000000) scale(0.100000,-0.100000)"
fill="#000000" stroke="none">
<path d="M279 743 c-119 -120 -219 -227 -223 -237 -5 -16 38 -65 221 -248
l228 -228 65 65 65 65 -163 163 c-89 89 -162 169 -162 176 0 8 72 87 160 176
l160 161 -59 62 c-33 34 -63 62 -68 62 -4 0 -105 -98 -224 -217z"/>
<path d="M782 547 l-52 -53 53 -52 53 -52 54 55 54 55 -49 50 c-27 27 -52 50
-55 50 -3 0 -29 -24 -58 -53z"/>
</g>
</svg>
